:SAMPLES-PER-SECOND 30
:FULLY-SPECIFIED
:DEGREES
75
root  50.2613 24.0805 -2.48988 -39.4181 -77.5583 57.825
RightUpLeg  -68.6478 -12.342 -5.1495
RightLeg  120.568 7.4031 -10.7339
RightFoot  -33.0829 2.72942 15.3132
RightToes  -1.33073e-015 0 -3.6325e-017
Spine  72.1159 -0.810293 1.79465
Spine1  -0.99603 -3.30353 13.0059
HEad  -45.8681 -1.85999 -2.51116
LeftShoulder1  3.40813 -15.1284 -11.0388
LeftArm  -111.433 -69.6047 74.6879
LeftForeArm  48.0653 -2.64146 -3.31655
LeftHand  -0.244104 0.0205437 5.32207
RightShoulder  0.262658 7.28857 -6.77399
RightArm  -31.8854 70.3705 32.2544
RightForeArm  18.1187 4.33367 0.949
RightHand  -27.1719 39.6347 -62.8718
LeftUpLeg  -80.4148 13.0029 -15.3914
LeftLeg  109.588 -1.01225 1.80095
LeftFoot  -31.3611 -0.65807 -4.79818
LeftToes  -7.82198e-011 2.46994e-011 -7.94165e-012
76
root  49.4359 23.7024 -2.63458 -37.2839 -76.9172 55.7505
RightUpLeg  -67.5924 -12.9441 -5.3614
RightLeg  122.805 7.43221 -9.89347
RightFoot  -32.2703 2.63065 15.3587
RightToes  -1.33073e-015 0 -3.6325e-017
Spine  71.6502 -0.64709 0.908874
Spine1  -2.40408 -3.71279 13.7278
HEad  -44.48 -1.61898 -2.3295
LeftShoulder1  4.19894 -17.6814 -12.7955
LeftArm  -105.904 -69.993 70.2776
LeftForeArm  48.688 -1.61343 -3.708
LeftHand  -0.244104 0.0205437 5.32207
RightShoulder  0.830746 8.95891 -2.11093
RightArm  -25.9626 68.7726 35.6036
RightForeArm  20.3923 4.62455 1.8858
RightHand  -28.0715 40.2423 -63.8616
LeftUpLeg  -79.9605 13.1439 -14.1986
LeftLeg  112.068 -0.550981 0.543126
LeftFoot  -31.4871 -0.891479 -6.08338
LeftToes  -7.82198e-011 2.46994e-011 -7.94165e-012
77
root  48.6071 23.3556 -2.75481 -35.7487 -76.3956 54.4298
RightUpLeg  -66.3568 -13.4896 -5.48918
RightLeg  124.636 7.44345 -9.25293
RightFoot  -31.746 2.56914 15.4012
RightToes  -1.33073e-015 0 -3.6325e-017
Spine  71.3809 -1.76822 0.30751
Spine1  -4.02224 -4.54261 11.3572
HEad  -43.0121 -0.794745 -0.436183
LeftShoulder1  4.13557 -18.8446 -11.2483
LeftArm  -99.7667 -71.1644 63.2911
LeftForeArm  48.8547 -0.694184 -3.61565
LeftHand  -0.244104 0.0205437 5.32207
RightShoulder  1.798 11.1033 4.50426
RightArm  -21.3543 67.1495 37.6921
RightForeArm  22.425 4.27897 2.64043
RightHand  -29.2142 40.9296 -65.1752
LeftUpLeg  -79.4508 13.2525 -13.0042
LeftLeg  114.285 -0.0862607 -0.46739
LeftFoot  -31.5515 -1.11658 -7.32451
LeftToes  -7.82198e-011 2.46994e-011 -7.94165e-012
78
root  47.7783 23.0335 -2.84672 -34.9754 -75.7923 54.2061
RightUpLeg  -65.2263 -14.2387 -5.74467
RightLeg  126.145 7.44029 -8.74895
RightFoot  -31.373 2.56209 15.6381
RightToes  -1.33073e-015 0 -3.6325e-017
Spine  70.2086 -1.11121 -0.767926
Spine1  -4.39191 -4.82127 12.9179
HEad  -42.1543 -0.581266 -0.786138
LeftShoulder1  5.06489 -20.2862 -14.3331
LeftArm  -96.4249 -71.9895 60.0766
LeftForeArm  48.9708 -0.338093 -4.02784
LeftHand  -0.244104 0.0205437 5.32207
RightShoulder  2.28444 12.0363 7.13124
RightArm  -17.9195 65.3848 39.7836
RightForeArm  23.7725 4.07549 3.13443
RightHand  -30.5254 41.655 -66.6992
LeftUpLeg  -79.0109 13.1984 -12.2011
LeftLeg  116.178 0.27051 -1.11057
LeftFoot  -31.7421 -1.34966 -8.55044
LeftToes  -7.82198e-011 2.46994e-011 -7.94165e-012
79
root  46.9422 22.7623 -2.90337 -34.0489 -75.156 53.7846
RightUpLeg  -63.7194 -15.2576 -6.19053
RightLeg  127.279 7.19873 -8.10613
RightFoot  -31.1003 2.67532 16.4838
RightToes  -1.33073e-015 0 -3.6325e-017
Spine  69.0024 -0.668261 -1.61702
Spine1  -4.32842 -5.15389 14.293
HEad  -41.616 -0.191124 -1.07578
LeftShoulder1  5.84149 -21.4246 -16.6406
LeftArm  -91.7329 -73.1059 55.6011
LeftForeArm  49.0114 0.377508 -4.63045
LeftHand  -0.244104 0.0205437 5.32207
RightShoulder  2.66908 12.4964 9.3439
RightArm  -14.7044 63.9639 41.1031
RightForeArm  24.6896 3.97986 3.79424
RightHand  -31.5928 42.2234 -67.9178
LeftUpLeg  -78.2281 12.9945 -11.5304
LeftLeg  117.748 0.426466 -1.32529
LeftFoot  -32.1308 -1.60786 -9.80045
LeftToes  -7.82198e-011 2.46994e-011 -7.94165e-012
80
root  46.0833 22.5493 -2.90544 -32.2682 -74.7594 52.3782
RightUpLeg  -61.6129 -16.216 -6.66117
RightLeg  127.98 6.58704 -7.18765
RightFoot  -31.1502 2.93954 17.9235
RightToes  -1.33073e-015 0 -3.6325e-017
Spine  68.0977 -0.395042 -2.1032
Spine1  -4.23791 -5.44054 15.821
HEad  -41.4431 0.340824 -1.78402
LeftShoulder1  6.73541 -22.6981 -19.0667
LeftArm  -83.5634 -73.9228 48.2291
LeftForeArm  50.5782 0.940489 -5.41544
LeftHand  -0.244104 0.0205437 5.32207
RightShoulder  2.95922 12.6786 11.1229
RightArm  -11.5041 62.8546 42.2935
RightForeArm  25.6342 3.85178 4.49264
RightHand  -32.4473 42.6601 -68.885
LeftUpLeg  -77.1329 12.7625 -10.7491
LeftLeg  119.131 0.234014 -0.946017
LeftFoot  -32.5414 -1.86497 -10.9865
LeftToes  -7.82198e-011 2.46994e-011 -7.94165e-012
81
root  45.208 22.3801 -2.83904 -29.9118 -74.7603 50.4943
RightUpLeg  -59.1769 -16.7738 -7.03418
RightLeg  128.257 5.66169 -6.04094
RightFoot  -31.5766 3.22916 19.1506
RightToes  -1.33073e-015 0 -3.6325e-017
Spine  67.3755 -0.449066 -2.22879
Spine1  -4.24051 -5.70925 16.8714
HEad  -41.4654 0.800589 -2.62249
LeftShoulder1  7.65138 -23.492 -21.8715
LeftArm  -73.2362 -74.0582 38.2986
LeftForeArm  53.5482 -0.296975 -5.93876
LeftHand  -0.244104 0.0205437 5.32207
RightShoulder  3.29149 12.9494 13.021
RightArm  -8.76162 61.6797 43.2347
RightForeArm  26.58 4.03209 5.11318
RightHand  -33.3418 43.0723 -69.9257
LeftUpLeg  -76.1376 12.5934 -9.98885
LeftLeg  120.44 -0.399872 0.0892713
LeftFoot  -32.6744 -2.06478 -11.9737
LeftToes  -7.82198e-011 2.46994e-011 -7.94165e-012
82
root  44.3462 22.2425 -2.71633 -28.1385 -75.0189 49.2598
RightUpLeg  -56.6976 -16.9041 -7.5827
RightLeg  128.212 4.55363 -4.75666
RightFoot  -31.8255 3.33903 19.5189
RightToes  -1.33073e-015 0 -3.6325e-017
Spine  66.5782 -0.66472 -2.13051
Spine1  -3.96492 -5.88151 17.1549
HEad  -41.4509 0.642392 -3.01106
LeftShoulder1  8.25156 -23.2183 -24.5453
LeftArm  -64.622 -73.9504 28.6808
LeftForeArm  56.0444 -3.61652 -5.98414
LeftHand  -0.244104 0.0205437 5.32207
RightShoulder  3.63812 13.2394 14.9167
RightArm  -7.10904 60.1864 43.4705
RightForeArm  27.5931 4.78126 5.52442
RightHand  -34.217 43.4481 -70.9535
LeftUpLeg  -75.2347 12.471 -9.53698
LeftLeg  121.612 -1.40687 1.59308
LeftFoot  -32.4473 -2.17333 -12.6728
LeftToes  -7.82198e-011 2.46994e-011 -7.94165e-012
